<svg id="visual" viewBox="0 0 960 540" width="960" height="540" xmlns="http://www.w3.org/2000/svg" xmlns:xlink="http://www.w3.org/1999/xlink" version="1.1"><rect x="0" y="0" width="960" height="540" fill="#001220"></rect><path d="M0 274L32 281.5C64 289 128 304 192 314.7C256 325.3 320 331.7 384 331.3C448 331 512 324 576 314.3C640 304.7 704 292.3 768 294.8C832 297.3 896 314.7 928 323.3L960 332L960 541L928 541C896 541 832 541 768 541C704 541 640 541 576 541C512 541 448 541 384 541C320 541 256 541 192 541C128 541 64 541 32 541L0 541Z" fill="#fa7268"></path><path d="M0 376L32 357.3C64 338.7 128 301.3 192 292.8C256 284.3 320 304.7 384 304.2C448 303.7 512 282.3 576 283C640 283.7 704 306.3 768 322C832 337.7 896 346.3 928 350.7L960 355L960 541L928 541C896 541 832 541 768 541C704 541 640 541 576 541C512 541 448 541 384 541C320 541 256 541 192 541C128 541 64 541 32 541L0 541Z" fill="#f56a67"></path><path d="M0 297L32 316.5C64 336 128 375 192 378.3C256 381.7 320 349.3 384 348.3C448 347.3 512 377.7 576 390.3C640 403 704 398 768 399.8C832 401.7 896 410.3 928 414.7L960 419L960 541L928 541C896 541 832 541 768 541C704 541 640 541 576 541C512 541 448 541 384 541C320 541 256 541 192 541C128 541 64 541 32 541L0 541Z" fill="#f06167"></path><path d="M0 388L32 382C64 376 128 364 192 357C256 350 320 348 384 359.8C448 371.7 512 397.3 576 402.8C640 408.3 704 393.7 768 383.3C832 373 896 367 928 364L960 361L960 541L928 541C896 541 832 541 768 541C704 541 640 541 576 541C512 541 448 541 384 541C320 541 256 541 192 541C128 541 64 541 32 541L0 541Z" fill="#eb5967"></path><path d="M0 451L32 446C64 441 128 431 192 430.5C256 430 320 439 384 429.2C448 419.3 512 390.7 576 386.2C640 381.7 704 401.3 768 405.7C832 410 896 399 928 393.5L960 388L960 541L928 541C896 541 832 541 768 541C704 541 640 541 576 541C512 541 448 541 384 541C320 541 256 541 192 541C128 541 64 541 32 541L0 541Z" fill="#e65067"></path><path d="M0 440L32 437.2C64 434.3 128 428.7 192 432.7C256 436.7 320 450.3 384 445.3C448 440.3 512 416.7 576 405.5C640 394.3 704 395.7 768 396.3C832 397 896 397 928 397L960 397L960 541L928 541C896 541 832 541 768 541C704 541 640 541 576 541C512 541 448 541 384 541C320 541 256 541 192 541C128 541 64 541 32 541L0 541Z" fill="#e04867"></path><path d="M0 437L32 432C64 427 128 417 192 420.7C256 424.3 320 441.7 384 443.7C448 445.7 512 432.3 576 426.3C640 420.3 704 421.7 768 430.8C832 440 896 457 928 465.5L960 474L960 541L928 541C896 541 832 541 768 541C704 541 640 541 576 541C512 541 448 541 384 541C320 541 256 541 192 541C128 541 64 541 32 541L0 541Z" fill="#da3f67"></path><path d="M0 483L32 478.5C64 474 128 465 192 462.3C256 459.7 320 463.3 384 469C448 474.7 512 482.3 576 483C640 483.7 704 477.3 768 471.3C832 465.3 896 459.7 928 456.8L960 454L960 541L928 541C896 541 832 541 768 541C704 541 640 541 576 541C512 541 448 541 384 541C320 541 256 541 192 541C128 541 64 541 32 541L0 541Z" fill="#d43667"></path><path d="M0 500L32 494C64 488 128 476 192 473.2C256 470.3 320 476.7 384 484.7C448 492.7 512 502.3 576 501.5C640 500.7 704 489.3 768 484.8C832 480.3 896 482.7 928 483.8L960 485L960 541L928 541C896 541 832 541 768 541C704 541 640 541 576 541C512 541 448 541 384 541C320 541 256 541 192 541C128 541 64 541 32 541L0 541Z" fill="#cd2d68"></path><path d="M0 513L32 514.8C64 516.7 128 520.3 192 515.7C256 511 320 498 384 492.2C448 486.3 512 487.7 576 488.7C640 489.7 704 490.3 768 497.2C832 504 896 517 928 523.5L960 530L960 541L928 541C896 541 832 541 768 541C704 541 640 541 576 541C512 541 448 541 384 541C320 541 256 541 192 541C128 541 64 541 32 541L0 541Z" fill="#c62368"></path></svg>