<svg id="visual" viewBox="0 0 1400 1400" width="1400" height="1400" xmlns="http://www.w3.org/2000/svg" xmlns:xlink="http://www.w3.org/1999/xlink" version="1.1"><rect x="0" y="0" width="1400" height="1400" fill="#001220"></rect><g fill="#0150b0"><circle r="61" cx="660" cy="123"></circle><circle r="8" cx="1171" cy="313"></circle><circle r="26" cx="958" cy="1078"></circle><circle r="12" cx="598" cy="1225"></circle><circle r="35" cx="493" cy="1157"></circle><circle r="22" cx="768" cy="984"></circle><circle r="31" cx="312" cy="367"></circle><circle r="35" cx="714" cy="542"></circle><circle r="26" cx="1305" cy="147"></circle><circle r="43" cx="1226" cy="964"></circle><circle r="34" cx="1136" cy="1069"></circle><circle r="28" cx="299" cy="104"></circle><circle r="9" cx="782" cy="1116"></circle><circle r="39" cx="931" cy="765"></circle><circle r="26" cx="177" cy="1100"></circle><circle r="22" cx="867" cy="112"></circle><circle r="9" cx="333" cy="1108"></circle><circle r="54" cx="1305" cy="504"></circle><circle r="24" cx="784" cy="235"></circle><circle r="21" cx="598" cy="1031"></circle><circle r="13" cx="1083" cy="503"></circle><circle r="55" cx="1095" cy="1209"></circle><circle r="35" cx="452" cy="958"></circle><circle r="10" cx="616" cy="821"></circle><circle r="53" cx="510" cy="185"></circle><circle r="39" cx="873" cy="542"></circle><circle r="45" cx="703" cy="408"></circle><circle r="15" cx="209" cy="792"></circle><circle r="38" cx="512" cy="432"></circle><circle r="49" cx="734" cy="1289"></circle><circle r="23" cx="144" cy="919"></circle><circle r="26" cx="599" cy="302"></circle><circle r="7" cx="599" cy="627"></circle><circle r="53" cx="274" cy="586"></circle><circle r="17" cx="111" cy="513"></circle><circle r="49" cx="1216" cy="691"></circle><circle r="31" cx="334" cy="841"></circle><circle r="7" cx="746" cy="708"></circle><circle r="23" cx="1294" cy="1290"></circle><circle r="31" cx="340" cy="709"></circle><circle r="23" cx="492" cy="565"></circle><circle r="37" cx="373" cy="1307"></circle><circle r="24" cx="903" cy="1258"></circle><circle r="40" cx="117" cy="283"></circle><circle r="35" cx="188" cy="1311"></circle><circle r="21" cx="1260" cy="847"></circle><circle r="29" cx="969" cy="228"></circle><circle r="44" cx="1131" cy="137"></circle><circle r="33" cx="486" cy="827"></circle><circle r="36" cx="162" cy="119"></circle><circle r="33" cx="407" cy="262"></circle><circle r="11" cx="268" cy="984"></circle><circle r="35" cx="1323" cy="318"></circle><circle r="17" cx="863" cy="380"></circle><circle r="49" cx="998" cy="1335"></circle><circle r="56" cx="1110" cy="628"></circle><circle r="41" cx="71" cy="659"></circle><circle r="19" cx="1077" cy="867"></circle><circle r="14" cx="789" cy="858"></circle><circle r="54" cx="1147" cy="1338"></circle><circle r="53" cx="506" cy="1337"></circle><circle r="56" cx="79" cy="1190"></circle><circle r="15" cx="197" cy="424"></circle><circle r="48" cx="77" cy="786"></circle></g></svg>